<svg enable-background="new 0 0 486.392 486.392" version="1.1" viewBox="0 0 486.392 486.392" xml:space="preserve" xmlns="http://www.w3.org/2000/svg">
	<path d="m243.2 0c-134.3 0-243.2 108.89-243.2 243.2s108.89 243.2 243.2 243.2 243.2-108.89 243.2-243.2c0-134.34-108.89-243.2-243.2-243.2zm-60.799 360.99h-60.799v-212.8h60.799v212.8zm-28.515-225.84c-15.747 0-28.484-12.768-28.484-28.515s12.768-28.515 28.484-28.515c15.747 0.03 28.515 12.798 28.515 28.515 0 15.747-12.768 28.515-28.515 28.515zm241.31 225.84h-60.799v-131.57c0-15.413-4.408-26.204-23.347-26.204-31.403 0-37.452 26.204-37.452 26.204v131.57h-60.799v-212.8h60.799v20.337c8.694-6.657 30.399-20.307 60.799-20.307 19.699 0 60.799 11.795 60.799 83.051v129.72z" fill="white"/>
</svg>
